<?xml version="1.0" encoding="utf-8"?>
<!-- Generator: Adobe Illustrator 19.2.1, SVG Export Plug-In . SVG Version: 6.00 Build 0)  -->
<svg version="1.1" id="layer" xmlns="http://www.w3.org/2000/svg" xmlns:xlink="http://www.w3.org/1999/xlink" x="0px" y="0px"
	 viewBox="0 0 652 652" style="enable-background:new 0 0 652 652;" xml:space="preserve">
<style type="text/css">
	.st0{fill:#004254;}
</style>
<rect x="20.9" y="281.9" class="st0" width="38.6" height="118"/>
<g>
	<path class="st0" d="M127.7,400H89.1v-118h82.5c20.1,0,34.3,7.4,40.2,20.6c2.7,6.9,3.7,16.4,3.7,32.3V400h-38.6v-61.4
		c0-12.2-1.1-15.9-2.7-19.6c-2.6-4.2-6.3-5.3-16.9-5.3h-29.7V400z"/>
	<path class="st0" d="M297.6,400c-25.4,0-40.2-5.3-49.2-17.5c-4.7-7.9-7.4-20.1-7.4-40.2v-3.2c0-23.3,3.2-35.5,11.1-43.4
		c9.5-10.1,22.7-13.8,45.5-13.8H333v-38.6h38.6V400H297.6z M333,313.7h-31.7c-18.5,0-21.1,3.2-21.1,25.4v3.7
		c0,22.2,2.7,25.4,21.1,25.4H333V313.7z"/>
	<path class="st0" d="M397.6,334.9c0-15.9,1-25.4,3.7-32.3c5.8-13.2,19.6-20.6,39.7-20.6h27.5v31.8h-13.2c-10.1,0-13.7,1.1-16.4,5.3
		c-2.1,3.7-2.7,7.4-2.7,19.6V400h-38.6V334.9z"/>
	<path class="st0" d="M546.8,400c-25.9,0-40.2-5.3-49.3-17.5c-5.3-7.9-7.4-20.1-7.4-40.2v-3.2c0-23.3,2.7-35.5,10.6-43.4
		c10.1-10.1,22.7-13.8,46-13.8h74.1v118H546.8z M582.2,313.7H550c-18.5,0-21.2,3.2-21.2,25.4v3.7c0,22.2,2.7,25.4,21.2,25.4h32.3
		V313.7z"/>
</g>
</svg>
